<?xml version="1.0" encoding="utf-8"?>
<!-- Generator: Adobe Illustrator 22.1.0, SVG Export Plug-In . SVG Version: 6.00 Build 0)  -->
<svg version="1.1" id="Layer_2_1_" xmlns="http://www.w3.org/2000/svg" xmlns:xlink="http://www.w3.org/1999/xlink" x="0px" y="0px"
	 viewBox="0 0 842.2 737.6" style="enable-background:new 0 0 842.2 737.6;" xml:space="preserve">
<style type="text/css">
	.st0{fill:#DB1414;}
	.st1{fill:#960606;}
	.st2{fill:#FFFFB3;}
	.st3{fill:#3B2A28;}
	.st4{fill:none;}
	.st5{fill:#EF5656;}
	.st6{fill:#C63232;}
</style>
<title>red-apple-core</title>
<path class="st0" d="M110.2,383.4c0,0,29.8,28.2,44.7,30.5c34.6,5.4,76.9-10.5,76.9-10.5s30.6,26.1,57.7,26.3
	c27.6,0.2,77.3-35.1,77.3-35.1s10.5,53-16.4,79.8c-18.2,18-59,24.5-77.8,26.6c-6.2,0.7-12.5-0.5-17.9-3.6l-27.7-15.3
	c-3.2-1.8-7.1-2.2-10.6-1.3c0,0-26.1,24.4-55.4,15.5c-35.5-10.8-49.3-32.5-52.8-50.4C105.1,430.6,110.2,383.4,110.2,383.4z"/>
<path class="st0" d="M119.9,224.3c0,0,8.2-11.8,19.9-11.6c12.7,0.2,25.2,16.9,25.2,16.9s36.9-30.5,54.3-30.8
	c29.2-0.4,43.8,51.6,43.8,51.6s36.1-29.1,59.1-31.3c19.7-2,34.6,4.2,45,11.7c13,9.2,19,20.5,19,20.5s35.1-89.1-37.5-121
	c-30.5-13.4-59.7-9.8-79.8-9.2c-24.4,0.8-69.7-4-97.6,4.4C114.6,142.4,119.9,224.3,119.9,224.3z"/>
<path class="st1" d="M242,120.6c0,0,26.9,11.5,32.4,14.7c7.4,4.3,19.3,15.2,19.3,15.2s-3.8-13.6-8.4-18.6
	c-3.1-3.3-14.5-11.1-14.5-11.1L242,120.6z"/>
<path class="st2" d="M222.8,321.3c-4.7,16.8-38.5,93.1-38.5,93.1s15.6-0.6,21.5-1.9c6.1-1.4,26-9,26-9s27.2,17.9,35.7,21.7
	c22.5,10.2,39.6,0.3,39.6,0.3s-16.4-76.8-15.2-100.8c3.2-58.2,67.5-99,67.5-99s-30.3-13.1-52.8-2.4c-11.3,5.4-43.5,27-43.5,27
	s-15-51.7-43.8-51.6c-9.9,0-26,10.6-26,10.6S234.1,280.7,222.8,321.3z"/>
<path class="st3" d="M293,45.9c15-12.6,33-5.1,33-5.1l3.3,7.4c3,4.5,8.7,6.4,13.7,4.4c8.4-3.3,20.4-9,23.5-12.2
	c3.1-3.2,1.5-10-3.2-10.8c0,0-10.3-5.7-31.2-7.7c-11.7-1.2-32.9,4.2-42.8,10.4c-9.3,5.8-15.6,15.5-19.9,21.4
	c-17.5,24.7-19.8,68.1-19.8,68.1s17.6,11.8,17.8,2.5C268.5,79,276.7,59.5,293,45.9z"/>
<rect class="st4" width="842.2" height="737.6"/>
<path class="st5" d="M538.1,598.8c0,0,41,0.8,53.6-7.6c29.3-19.3,49.8-59.6,49.8-59.6s40.2-1.3,60.4-19.4c20.6-18.5,33.5-78,33.5-78
	s43.5,32.1,41.6,70c-1.3,25.5-27.1,57.8-39.5,72.1c-4.1,4.7-9.6,8-15.7,9.5l-30.9,7.4c-3.6,0.9-6.8,3.1-8.7,6.3
	c0,0-2.8,35.7-30.5,48.8c-33.6,15.9-58.4,9.3-73-1.7C566.2,637.1,538.1,598.8,538.1,598.8z"/>
<path class="st5" d="M429.9,482.2c0,0,6.3-21.7,15-29.5c9.5-8.5,29.9-4.5,29.9-4.5s6.7-47.4,19.4-59.3c21.3-20,67.1,8.6,67.1,8.6
	s7.1-45.9,22.5-62.9c29.8-33.1,80.4-23.2,80.4-23.2s-45.6-85.7-120.7-60.3c-31.6,10.6-50.8,33-65.2,47c-17.5,17-54.2,44-69.1,69
	C379,417.8,429.9,482.2,429.9,482.2z"/>
<path class="st6" d="M458.4,315.8c0,0,27.6-9.6,33.8-11c8.3-1.8,24.5-1.7,24.5-1.7s-12-7.6-18.7-8.1c-4.5-0.4-18.1,1.6-18.1,1.6
	L458.4,315.8z"/>
<path class="st2" d="M579.5,477c7.9,15.6,34.2,94.8,34.2,94.8s11.2-10.9,14.6-15.9c3.5-5.1,13.2-24.2,13.2-24.2s32.1-5.1,41-8
	c23.5-7.6,29.4-26.4,29.4-26.4S648,451.6,632.8,433c-36.8-45.2-16.9-118.6-16.9-118.6s-31.2,10.7-40.6,33.8
	c-4.7,11.6-14,49.2-14,49.2s-45.9-28.1-67.1-8.6c-7.3,6.7-12.1,25.3-12.1,25.3S560.4,439.4,579.5,477z"/>
<path class="st3" d="M445.7,226.3c2.6-19.4,20.9-26,20.9-26l7.4,3.2c5.2,1.3,10.7-1.2,13.1-6c4-8,9-20.4,9.1-24.9
	c0.1-4.5-5.7-8.4-9.6-5.9c0,0-11.5,2.7-28.3,15.3c-9.5,7.1-21.4,25.3-24.6,36.6c-3,10.5-1.1,22-0.2,29.3
	c3.7,30.1,31.2,63.6,31.2,63.6s21-3.2,14.8-10.2C449.9,267.2,442.9,247.2,445.7,226.3z"/>
</svg>
