<svg id="Layer_1" data-name="Layer 1" xmlns="http://www.w3.org/2000/svg" viewBox="0 0 594.54 509.57"><defs><style>.cls-1{fill:#9a9361;}.cls-2{fill:#c5b98c;}.cls-3{fill:#4c4c4b;}.cls-4{fill:#947337;}.cls-5{fill:#c4b988;}.cls-6{fill:#fdf9ce;}</style></defs><title>fishbones</title><path class="cls-1" d="M12,418c-28.1-62.64,125.24-188.91,162.79-215.71A11.18,11.18,0,0,1,189.67,204C212,229.33,291.49,328,298.33,367c17,97-49.66,94-73.33,88.67C159.8,441.05,90.88,447.94,57,454c-31.67,5.67-51-28.43-33-29.33,46.33-2.34,61.87-7.79,61.87-7.79S16.29,427.57,12,418Z" transform="translate(-8.58 -174.5)"/><path class="cls-2" d="M149,240.25l25.88-19.5c2.91-2.3,7.51-5.49,9.87-2.63l9.87,11c7,7.88,3,10.08-18.87,19.38l-34.13,9C135.65,259.43,123.5,259.88,149,240.25Z" transform="translate(-8.58 -174.5)"/><path class="cls-2" d="M20.6,393.76c2.4-34,75.9-104.26,75.9-104.26,1.12-1.52,6.77-2.75,6.75,2.25,0,0,0,25.25-11.62,56.28C88.54,356.3,87.75,361.5,76,369.82c0,0-33.76,24.18-49,29.93C22.8,401.33,20.28,398.23,20.6,393.76Z" transform="translate(-8.58 -174.5)"/><path class="cls-3" d="M138.31,284.09l26,12.24-4.68,11.72a7.85,7.85,0,0,0,.27,6.45l.41.83,4,1.67,8.34-16.33,11.55,5.9a4.5,4.5,0,0,0,5.7-1.39h0a1.85,1.85,0,0,0-.45-2.58l-14.14-9.93,4.15-8.3a4.84,4.84,0,0,0-1.52-6.11h0a3.94,3.94,0,0,0-5.75,1.33L167.67,288,142,278.57S160.84,256,183.67,266C207.33,276.33,208,295,206,305c-2.5,12.49-22.28,41.49-54,26.64C120.67,317,138.31,284.09,138.31,284.09Z" transform="translate(-8.58 -174.5)"/><path class="cls-4" d="M266,519c20.67,8,32.67,2,50.67.67,14-1,26.66-8,50.66-11.34.39-.05,20.61,0,21,0,5.16,0,15.66,6.4,18.34,8.67,11.16,9.5,21.1,26,21.1,26s15.23,13.67,24.06,38.83c6.59,18.77,2.67,55.46,17.74,94.84,5.1,13.33-6,5.15-11.42,2.35-25.17-12.88-51.47-37.67-52.65-46.35-1-7.66-7.43-25.37-10.62-35.45-1.36-4.3-4.56-7-9-6.55,0,0-47.17,9.33-72.84-2.34-7.63-3.46-25.74-18.93-29-21.73a4.29,4.29,0,0,1-.85-1l-26.48-34.93C254.7,527.52,247.59,511.87,266,519Z" transform="translate(-8.58 -174.5)"/><path class="cls-1" d="M393.5,511.75c0-12.15,11.25-17.8,12.5-33,.44-5.32,2.26-22.44,5.75-19.75C433.5,475.75,470,508.75,486,534.75c0,0-16.25,6-31.25,8.25a47.44,47.44,0,0,0-20.5,8.25C432.75,545.5,393.5,511.75,393.5,511.75Z" transform="translate(-8.58 -174.5)"/><path class="cls-5" d="M412.5,516.27s-.75-24.94,4.25-32.46a2.82,2.82,0,0,1,4.06-.5,34.4,34.4,0,0,1,3.34,3.22c4.21,4.73,4.6,5,1.93,11.22,0,0-6,14.5-10.79,19.5C414.18,518.4,412.33,517.87,412.5,516.27Z" transform="translate(-8.58 -174.5)"/><path class="cls-6" d="M258,284.91l36.94-20.05a2.92,2.92,0,0,0,1.17-3.94c-6.69-12.25-8.55-19.31-43.89-52-9.61-8.9-1-9.73,3.9-10.59l1.22-.21c5.71-1,15.18-3.08,40.4,23.35,6.57,6.89,19.84,29.34,23.39,35.42a2.9,2.9,0,0,0,2.67,1.43l37.72-2.14a2.89,2.89,0,0,0,2.74-2.8c.43-20.3-26.32-66.14-28.41-69.71a2.82,2.82,0,0,1-.23-.46c-1.23-3.35-1.79-8.67,3.82-8.67h3c6.42,0,14.9,4.13,18.71,9.29,14.95,20.22,21.27,62.35,22.6,72.4a2.88,2.88,0,0,0,2.48,2.49l32.38,4.43a2.9,2.9,0,0,0,3.19-2.1c3.4-12.3,19-67.28,30.22-80,1.59-1.81,12.33-2.67,12.16,7.88-.44,25.85-19.06,66.79-24,77.17a2.9,2.9,0,0,0,1.22,3.78l28,15.46a2.92,2.92,0,0,0,3.64-.69l41-49.34a2.9,2.9,0,0,1,3.51-.75l3.56,1.75c1.54.76-6.91,24.69-7.83,26.15l-25.2,32.37a2.91,2.91,0,0,0,.16,3.33l24.37,31.59a2.92,2.92,0,0,0,3.47.89l56.89-25a2.92,2.92,0,0,1,3.77,1.36l3.55,7.11a2.91,2.91,0,0,1-1.12,3.8l-51.06,30.17a2.91,2.91,0,0,0-1.41,2.81l4.13,39.07a2.9,2.9,0,0,0,1.58,2.28l69.13,35.09a2.91,2.91,0,0,1,1.07,4.24l-2.77,4c-.78,1.14-23.07-.52-24.34-1.05-16.41-6.92-44.83-25.59-44.83-25.59a2.91,2.91,0,0,0-3.51,1l-18,26a2.88,2.88,0,0,0-.06,3.22l32.49,50.6a2.9,2.9,0,0,1-.7,3.89L539,495a2.92,2.92,0,0,1-3.73-.2l-41.9-39.17a2.89,2.89,0,0,0-4.27.34l-29.64,38a2.91,2.91,0,0,1-4.23.39l-13.6-12.1a2.89,2.89,0,0,1-.33-4l26.17-32.27a2.92,2.92,0,0,0-.73-4.31l-33.33-20.57a2.86,2.86,0,0,1-.91-.89c-1-1.64-3.08-5.85-2.61-6.29h0c5.32-4.92,10.82-.94,17.66,1.49l34.73,14.31a2.88,2.88,0,0,0,3.25-.73l15.5-17a2.92,2.92,0,0,0,.55-.87l8.47-21a2.78,2.78,0,0,0,.12-.38c1.12-4.47,1.91-21.4-.08-17.65-6.46,12.24-21.88,25.38-24.36,27.44a2.45,2.45,0,0,1-.74.45,4.5,4.5,0,0,1-6-3.65,2.77,2.77,0,0,1,.84-2.28l1.66-1.66a3,3,0,0,0,.76-1.35,14.75,14.75,0,0,1,1.59-3.72l19.74-32.9h0l-13.28-25.08a3.07,3.07,0,0,0-.56-.74L476.75,316.3a2.9,2.9,0,0,0-4.91,1.93c-.55,9.52-3.21,30.17-14.34,67.27-2.73,9.09-11.19-7-10.5-10.5,8.64-43.92,10.68-63.66,7-75.37-1.12-3.56-8.94-7.36-12.27-9.55a2.93,2.93,0,0,0-.56-.28l-12.82-4.93a2.57,2.57,0,0,1-.52-.27,19.24,19.24,0,0,0-7-2.84l-17-3.18a2.91,2.91,0,0,0-3.14,4.14c5.36,10.89,17.23,36.69,20.11,56.78.78,5.47,0,21.21-.07,23.28a3.32,3.32,0,0,1-.06.44c-.84,4-3.82,24.11-7.29,24.11l-7.66,1c-2.42,0-3.6-11.33-3.53-13.74.27-9.25.77-30.5-.14-38.79-1.61-14.63-9.84-44.67-21-55.55a2.91,2.91,0,0,0-2.26-.82L336,282.73a2.91,2.91,0,0,0-2.58,3.65l8,30a1.8,1.8,0,0,1,.06.32l5.92,39.43a2.82,2.82,0,0,1,0,.82l-3.2,23.36a3.27,3.27,0,0,1-.1.45,27.39,27.39,0,0,1-5.41,8.33,2.91,2.91,0,0,1-5-2v-.26a2.52,2.52,0,0,0-.84-1.82c-1.86-1.77-3.1-5.39-3.4-7.73L324,335.8l-6-46.25a2.82,2.82,0,0,0-3.86-2.2L270.61,305a2.9,2.9,0,0,1-3.49-1.05L257,289.11A2.92,2.92,0,0,1,258,284.91Z" transform="translate(-8.58 -174.5)"/></svg>