<svg id="Layer_2" data-name="Layer 2" xmlns="http://www.w3.org/2000/svg" viewBox="0 0 291.17 490.18"><title>green-apple-core</title><path d="M172,530.5s32.36,25.13,47.5,26c35,2,75.5-18,75.5-18s33,23,60,20.5c27.55-2.55,73.5-42.5,73.5-42.5s15.69,51.74-8.5,81c-16.26,19.66-56.26,30.18-74.79,34.13a30.08,30.08,0,0,1-18.23-1.8L297.83,617.3a14.12,14.12,0,0,0-10.74-.19S263.5,644,233.5,638c-36.44-7.29-52.34-27.49-57.5-45C171.57,578,172,530.5,172,530.5Z" transform="translate(-154.99 -148.7)" fill="#88cb47"/><path d="M155,372.33s18-13.66,29.67-14.66c12.69-1.09,26.66,14.33,26.66,14.33s33.73-34,51-36c29-3.33,48.67,47,48.67,47s33.14-32.53,55.67-37c43.66-8.67,78.33,29.5,78.33,29.5s14.7-95.91-60.67-120.5c-31.66-10.33-60.41-3.95-80.33-1.33-24.21,3.18-69.81,2.86-96.67,14C152.67,290.33,155,372.33,155,372.33Z" transform="translate(-154.99 -148.7)" fill="#88cb47"/><path d="M277.33,256s27.86,8.78,33.67,11.42c7.77,3.53,20.67,13.25,20.67,13.25s-5.09-13.25-10.17-17.7c-3.39-3-15.5-9.57-15.5-9.57Z" transform="translate(-154.99 -148.7)" fill="#597f30"/><path d="M278,457.56c-3,17.21-29.21,96.44-29.21,96.44s15.47-2.09,21.17-4c5.85-2,25-11.5,25-11.5s28.82,15.11,37.67,18.1C356,564.5,372,553,372,553s-23.92-74.79-25-98.76C344.5,396,404.36,349.06,404.36,349.06S373,339,351.6,351.9C340.89,358.36,311,383,311,383s-20-50-48.67-47c-9.81,1-24.79,13.06-24.79,13.06S285.2,416.06,278,457.56Z" transform="translate(-154.99 -148.7)" fill="#ffffb3"/><path d="M320.67,176.67c13.66-14,32.33-8.34,32.33-8.34l4,7a11.44,11.44,0,0,0,14.1,3c8-4.07,19.44-11,22.23-14.54s.47-10.13-4.22-10.45c0,0-10.78-4.71-31.81-4.63-11.8,0-32.28,7.44-41.63,14.63-8.67,6.67-14.05,17-17.67,23.34-15,26.33-13,69.66-13,69.66s18.71,10,18,.67C299.57,212,305.91,191.78,320.67,176.67Z" transform="translate(-154.99 -148.7)" fill="#3b2a28"/></svg>