<svg id="Layer_2" data-name="Layer 2" xmlns="http://www.w3.org/2000/svg" viewBox="0 0 462.93 302.38"><defs><style>.cls-1{fill:#b79730;}.cls-2{fill:#493614;}.cls-3{fill:#e1ba23;}.cls-4{fill:#f1db15;}.cls-5{fill:#70341f;}</style></defs><title>banana</title><path class="cls-1" d="M112,564.74s75.41-27.1,97.92-42.07c19.58-13,64.27-55.93,84.88-76.06a52,52,0,0,1,25.8-13.7l20.65-4.24,21.85-53.08a15.23,15.23,0,0,1,20.82-6.3l10.67,16-16,11.67,2,14.33-6.48,10.8a24.71,24.71,0,0,0-2.58,19.52l3.72,13s13.7,61.22,28,75.33c48,47.33,84.65,37,108.67,42.67,8.39,2,5.06,15.64-3,18.56,0,0-26.52,4.18-51,4.77-33.75.81-107.66-44.78-107.66-44.78C310.67,630,220.67,678,99.67,668.63c-35.35-2.74-33.86-10.56-33-28,.65-13.42,64.94-42.62,77.35-47,7.07-2.52-14.09-.43-19.43-2.29C109.15,586,98.93,574.55,112,564.74Z" transform="translate(-53.87 -367.41)"/><path class="cls-2" d="M354.77,396a2.86,2.86,0,0,0,.31-.89c.49-2.95,3.49-18.74,12.12-24.57,5.77-3.9,13.46-3.82,18.13,1.34l7,6.42a2.82,2.82,0,0,0,.65.43c6.42,3.31-3.21,11.45-4.31,11.31a2.74,2.74,0,0,0-1.86.69L381,395a2.75,2.75,0,0,0-1.09,2.62l1.63,11.19a2.77,2.77,0,0,1-.24,1.6l-6.37,13.19a16.91,16.91,0,0,0-1.23,11.2l2.7,11.48a17.92,17.92,0,0,1-.69,10.52l-3.27,8.63a2.76,2.76,0,0,1-5.19-.06c-2.43-7.12-4.26-22.25,3.66-52.06,2.35-8.85-6.58-13-19.24-7C348.64,407.77,352.87,399.39,354.77,396Z" transform="translate(-53.87 -367.41)"/><path class="cls-2" d="M116.5,564l-1.89,7.45a13.06,13.06,0,0,0,2.23,11l6,7.94s-13.27-5.08-15.46-11.75a19.38,19.38,0,0,1,.46-9.17C109.92,564.58,116.5,564,116.5,564Z" transform="translate(-53.87 -367.41)"/><path class="cls-2" d="M60.05,635.73l15-6.64A1.44,1.44,0,0,1,77,631l-4.59,11.37a6.92,6.92,0,0,0,1.64,7.59L78.33,654l-1.54,3.74c-1.49,3.59-2.46,8.59-8.87,5.93H62.78a7.59,7.59,0,0,1-4.9-1.8l-.5-.43a10,10,0,0,1-3.44-8.72l1.18-10.29A8.36,8.36,0,0,1,60.05,635.73Z" transform="translate(-53.87 -367.41)"/><path class="cls-3" d="M96.8,651.27a15.34,15.34,0,0,1-3.22-26.77l51.34-21.36c1.72-.76,7.37-4.65,9-5.66l80.44-51.56a41.86,41.86,0,0,0,12.62-12.59l42.83-66.45a42.62,42.62,0,0,1,28.86-19l1.6-.27a28.54,28.54,0,0,1,28.88,13l5.1,8.15c3.7,5.89,15.79,42.73-35.71,113.73C291.85,619.24,252,632,200.23,648.07,108.87,676.44,96.8,651.27,96.8,651.27Z" transform="translate(-53.87 -367.41)"/><path class="cls-4" d="M125.29,627.57c15.21-9.78,27.56-12.49,36.71-18.28,53-33.5,94.42-77.21,97-81,8.48-12.46,26.5-35.5,26.5-35.5,5.16-7.58,6.09-16.28,15.49-17.77,0,0,8.88-4.23,13.73,3.09,0,0,20.07,8.93-20.72,62.18-21.11,27.56-56.62,55.29-96.79,69.88C125.29,636.29,125.29,627.57,125.29,627.57Z" transform="translate(-53.87 -367.41)"/><path class="cls-5" d="M306,451.5c-.65-3.22,6.75-8.07,10-8.5,2.47-.32,8.74,1.78,9,4.25.31,3-6.56,6.73-9.5,7.25C313.09,454.93,306.53,453.94,306,451.5Z" transform="translate(-53.87 -367.41)"/></svg>