<?xml version="1.0" encoding="utf-8"?>
<!-- Generator: Adobe Illustrator 22.1.0, SVG Export Plug-In . SVG Version: 6.00 Build 0)  -->
<svg version="1.1" id="Layer_2_1_" xmlns="http://www.w3.org/2000/svg" xmlns:xlink="http://www.w3.org/1999/xlink" x="0px" y="0px"
	 viewBox="0 0 842.2 737.6" style="enable-background:new 0 0 842.2 737.6;" xml:space="preserve">
<style type="text/css">
	.st0{fill:none;}
	.st1{fill:#88CB47;}
	.st2{fill:#597F30;}
	.st3{fill:#FFFFB3;}
	.st4{fill:#3B2A28;}
</style>
<title>red-apple-core</title>
<rect class="st0" width="842.2" height="737.6"/>
<path class="st1" d="M381,509c0,0,8.8,40,19.8,50.4c25.6,23.9,69.5,34.5,69.5,34.5s10.6,38.8,33,54.2c22.8,15.7,83.7,14.4,83.7,14.4
	s-21.1,49.8-58.4,56.8c-25.1,4.7-62.5-12.8-79.3-21.7c-5.5-2.9-10-7.5-12.9-13.1L422,656.2c-1.7-3.3-4.6-5.8-8.1-7
	c0,0-35.3,5.6-54.5-18.3c-23.3-28.9-22.6-54.6-15.4-71.4C350.3,545.2,381,509,381,509z"/>
<path class="st1" d="M469.2,376.6c0,0,22.6,1,32.2,7.7c10.4,7.3,11.3,28.1,11.3,28.1s47.7-4.5,62.2,5c24.4,16,7.3,67.3,7.3,67.3
	s46.3-3.8,66.5,7.2c39.1,21.3,41.3,72.8,41.3,72.8s72.7-64.3,30.5-131.4c-17.7-28.2-43.9-41.7-60.9-52.5
	c-20.6-13.1-55.5-42.5-83.2-51.1C519.9,312.1,469.2,376.6,469.2,376.6z"/>
<path class="st2" d="M637.7,365.5c0,0,15.8,24.6,18.6,30.3c3.7,7.7,7.4,23.4,7.4,23.4s4.6-13.4,3.5-20.1c-0.7-4.5-5.8-17.3-5.8-17.3
	L637.7,365.5z"/>
<path class="st3" d="M509.1,520.8c-13.3,11.3-84.2,55.4-84.2,55.4s13.2,8.3,18.8,10.5c5.8,2.2,26.6,7.2,26.6,7.2s12.5,30.1,17.3,38
	c12.9,21,32.5,22.4,32.5,22.4s29.5-72.8,44-91.9c35.4-46.3,111.4-44.1,111.4-44.1s-17.6-27.8-42.3-31.6c-12.4-1.9-51.1-2.1-51.1-2.1
	s16.6-51.2-7.3-67.3c-8.2-5.5-27.4-5.8-27.4-5.8S541.2,493.5,509.1,520.8z"/>
<path class="st4" d="M721.7,332.3c19.5-2,30.2,14.3,30.2,14.3l-1.4,7.9c-0.1,5.4,3.6,10.1,8.9,11.3c8.8,2,22,4,26.4,3.1
	s6.8-7.5,3.4-10.7c0,0-5.3-10.5-21.5-23.9c-9.1-7.6-29.6-15-41.3-15.4c-10.9-0.4-21.7,4.1-28.5,6.6c-28.4,10.6-54.6,45.2-54.6,45.2
	s8,19.7,13.4,12C682.9,346,700.7,334.5,721.7,332.3z"/>
</svg>
