<?xml version="1.0" encoding="utf-8"?>
<!-- Generator: Adobe Illustrator 22.1.0, SVG Export Plug-In . SVG Version: 6.00 Build 0)  -->
<svg version="1.1" id="Layer_2_1_" xmlns="http://www.w3.org/2000/svg" xmlns:xlink="http://www.w3.org/1999/xlink" x="0px" y="0px"
	 viewBox="0 0 842.2 737.6" style="enable-background:new 0 0 842.2 737.6;" xml:space="preserve">
<style type="text/css">
	.st0{fill:#DB1414;}
	.st1{fill:#960606;}
	.st2{fill:#FFFFB3;}
	.st3{fill:#3B2A28;}
	.st4{fill:none;}
</style>
<title>red-apple-core</title>
<path class="st0" d="M83.6,411c0,0,32.4,25.1,47.5,26c35,2,75.5-18,75.5-18s33,23,60,20.5c27.5-2.5,73.5-42.5,73.5-42.5
	s15.7,51.7-8.5,81c-16.3,19.7-56.3,30.2-74.8,34.1c-6.1,1.3-12.5,0.7-18.2-1.8l-29.1-12.5c-3.4-1.5-7.3-1.5-10.7-0.2
	c0,0-23.6,26.9-53.6,20.9c-36.4-7.3-52.3-27.5-57.5-45C83.2,458.5,83.6,411,83.6,411z"/>
<path class="st0" d="M77.6,251.7c0,0,7-12.5,18.7-13.5c12.7-1.1,26.7,14.3,26.7,14.3s33.7-34,51-36c29-3.3,48.7,47,48.7,47
	s33.1-32.5,55.7-37c19.4-3.9,34.8,0.8,45.9,7.2c13.8,7.9,20.9,18.5,20.9,18.5s26.2-92.1-49.2-116.7c-31.7-10.3-60.4-3.9-80.3-1.3
	c-24.2,3.2-69.8,2.9-96.7,14C64.3,170.8,77.6,251.7,77.6,251.7z"/>
<path class="st1" d="M188.9,136.5c0,0,27.9,8.8,33.7,11.4c7.8,3.5,20.7,13.2,20.7,13.2s-5.1-13.2-10.2-17.7
	c-3.4-3-15.5-9.6-15.5-9.6L188.9,136.5z"/>
<path class="st2" d="M189.6,338.1c-3,17.2-29.2,96.4-29.2,96.4s15.5-2.1,21.2-4c5.9-2,25-11.5,25-11.5s28.8,15.1,37.7,18.1
	c23.4,7.9,39.4-3.6,39.4-3.6s-23.9-74.8-25-98.8c-2.5-58.2,57.4-105.2,57.4-105.2s-31.4-10.1-52.8,2.8
	c-10.7,6.5-40.6,31.1-40.6,31.1s-20-50-48.7-47c-9.8,1-24.8,13.1-24.8,13.1S196.8,296.6,189.6,338.1z"/>
<path class="st3" d="M232.3,57.2c13.7-14,32.3-8.3,32.3-8.3l4,7c3.4,4.2,9.3,5.5,14.1,3c8-4.1,19.4-11,22.2-14.5
	c2.8-3.5,0.5-10.1-4.2-10.4c0,0-10.8-4.7-31.8-4.6c-11.8,0-32.3,7.4-41.6,14.6c-8.7,6.7-14,17-17.7,23.3c-15,26.3-13,69.7-13,69.7
	s18.7,10,18,0.7C211.2,92.5,217.5,72.3,232.3,57.2z"/>
<rect class="st4" width="842.2" height="737.6"/>
</svg>
